<?xml version="1.0" encoding="utf-8" standalone="no"?>
<!DOCTYPE svg PUBLIC "-//W3C//DTD SVG 1.1//EN"
  "http://www.w3.org/Graphics/SVG/1.1/DTD/svg11.dtd">
<!-- Created with matplotlib (https://matplotlib.org/) -->
<svg height="345.6pt" version="1.1" viewBox="0 0 460.8 345.6" width="460.8pt" xmlns="http://www.w3.org/2000/svg" xmlns:xlink="http://www.w3.org/1999/xlink">
 <metadata>
  <rdf:RDF xmlns:cc="http://creativecommons.org/ns#" xmlns:dc="http://purl.org/dc/elements/1.1/" xmlns:rdf="http://www.w3.org/1999/02/22-rdf-syntax-ns#">
   <cc:Work>
    <dc:type rdf:resource="http://purl.org/dc/dcmitype/StillImage"/>
    <dc:date>2020-09-18T10:59:48.697722</dc:date>
    <dc:format>image/svg+xml</dc:format>
    <dc:creator>
     <cc:Agent>
      <dc:title>Matplotlib v3.3.2, https://matplotlib.org/</dc:title>
     </cc:Agent>
    </dc:creator>
   </cc:Work>
  </rdf:RDF>
 </metadata>
 <defs>
  <style type="text/css">*{stroke-linecap:butt;stroke-linejoin:round;}</style>
 </defs>
 <g id="figure_1">
  <g id="patch_1">
   <path d="M 0 345.6 
L 460.8 345.6 
L 460.8 0 
L 0 0 
z
" style="fill:#ffffff;"/>
  </g>
  <g id="axes_1">
   <g id="patch_2">
    <path d="M 57.6 307.584 
L 414.72 307.584 
L 414.72 41.472 
L 57.6 41.472 
z
" style="fill:#ffffff;"/>
   </g>
   <g id="matplotlib.axis_1">
    <g id="xtick_1">
     <g id="line2d_1">
      <defs>
       <path d="M 0 0 
L 0 3.5 
" id="m65c2256429" style="stroke:#000000;stroke-width:0.8;"/>
      </defs>
      <g>
       <use style="stroke:#000000;stroke-width:0.8;" x="73.832727" xlink:href="#m65c2256429" y="307.584"/>
      </g>
     </g>
     <g id="text_1">
      <!-- one -->
      <g transform="translate(76.131287 330.085609)rotate(-90)scale(0.0833 -0.0833)">
       <defs>
        <path d="M 30.609375 48.390625 
Q 23.390625 48.390625 19.1875 42.75 
Q 14.984375 37.109375 14.984375 27.296875 
Q 14.984375 17.484375 19.15625 11.84375 
Q 23.34375 6.203125 30.609375 6.203125 
Q 37.796875 6.203125 41.984375 11.859375 
Q 46.1875 17.53125 46.1875 27.296875 
Q 46.1875 37.015625 41.984375 42.703125 
Q 37.796875 48.390625 30.609375 48.390625 
z
M 30.609375 56 
Q 42.328125 56 49.015625 48.375 
Q 55.71875 40.765625 55.71875 27.296875 
Q 55.71875 13.875 49.015625 6.21875 
Q 42.328125 -1.421875 30.609375 -1.421875 
Q 18.84375 -1.421875 12.171875 6.21875 
Q 5.515625 13.875 5.515625 27.296875 
Q 5.515625 40.765625 12.171875 48.375 
Q 18.84375 56 30.609375 56 
z
" id="DejaVuSans-111"/>
        <path d="M 54.890625 33.015625 
L 54.890625 0 
L 45.90625 0 
L 45.90625 32.71875 
Q 45.90625 40.484375 42.875 44.328125 
Q 39.84375 48.1875 33.796875 48.1875 
Q 26.515625 48.1875 22.3125 43.546875 
Q 18.109375 38.921875 18.109375 30.90625 
L 18.109375 0 
L 9.078125 0 
L 9.078125 54.6875 
L 18.109375 54.6875 
L 18.109375 46.1875 
Q 21.34375 51.125 25.703125 53.5625 
Q 30.078125 56 35.796875 56 
Q 45.21875 56 50.046875 50.171875 
Q 54.890625 44.34375 54.890625 33.015625 
z
" id="DejaVuSans-110"/>
        <path d="M 56.203125 29.59375 
L 56.203125 25.203125 
L 14.890625 25.203125 
Q 15.484375 15.921875 20.484375 11.0625 
Q 25.484375 6.203125 34.421875 6.203125 
Q 39.59375 6.203125 44.453125 7.46875 
Q 49.3125 8.734375 54.109375 11.28125 
L 54.109375 2.78125 
Q 49.265625 0.734375 44.1875 -0.34375 
Q 39.109375 -1.421875 33.890625 -1.421875 
Q 20.796875 -1.421875 13.15625 6.1875 
Q 5.515625 13.8125 5.515625 26.8125 
Q 5.515625 40.234375 12.765625 48.109375 
Q 20.015625 56 32.328125 56 
Q 43.359375 56 49.78125 48.890625 
Q 56.203125 41.796875 56.203125 29.59375 
z
M 47.21875 32.234375 
Q 47.125 39.59375 43.09375 43.984375 
Q 39.0625 48.390625 32.421875 48.390625 
Q 24.90625 48.390625 20.390625 44.140625 
Q 15.875 39.890625 15.1875 32.171875 
z
" id="DejaVuSans-101"/>
       </defs>
       <use xlink:href="#DejaVuSans-111"/>
       <use x="61.181641" xlink:href="#DejaVuSans-110"/>
       <use x="124.560547" xlink:href="#DejaVuSans-101"/>
      </g>
     </g>
    </g>
    <g id="xtick_2">
     <g id="line2d_2">
      <g>
       <use style="stroke:#000000;stroke-width:0.8;" x="155.077609" xlink:href="#m65c2256429" y="307.584"/>
      </g>
     </g>
     <g id="text_2">
      <!-- two -->
      <g transform="translate(157.376168 329.758917)rotate(-90)scale(0.0833 -0.0833)">
       <defs>
        <path d="M 18.3125 70.21875 
L 18.3125 54.6875 
L 36.8125 54.6875 
L 36.8125 47.703125 
L 18.3125 47.703125 
L 18.3125 18.015625 
Q 18.3125 11.328125 20.140625 9.421875 
Q 21.96875 7.515625 27.59375 7.515625 
L 36.8125 7.515625 
L 36.8125 0 
L 27.59375 0 
Q 17.1875 0 13.234375 3.875 
Q 9.28125 7.765625 9.28125 18.015625 
L 9.28125 47.703125 
L 2.6875 47.703125 
L 2.6875 54.6875 
L 9.28125 54.6875 
L 9.28125 70.21875 
z
" id="DejaVuSans-116"/>
        <path d="M 4.203125 54.6875 
L 13.1875 54.6875 
L 24.421875 12.015625 
L 35.59375 54.6875 
L 46.1875 54.6875 
L 57.421875 12.015625 
L 68.609375 54.6875 
L 77.59375 54.6875 
L 63.28125 0 
L 52.6875 0 
L 40.921875 44.828125 
L 29.109375 0 
L 18.5 0 
z
" id="DejaVuSans-119"/>
       </defs>
       <use xlink:href="#DejaVuSans-116"/>
       <use x="39.208984" xlink:href="#DejaVuSans-119"/>
       <use x="120.996094" xlink:href="#DejaVuSans-111"/>
      </g>
     </g>
    </g>
    <g id="xtick_3">
     <g id="line2d_3">
      <g>
       <use style="stroke:#000000;stroke-width:0.8;" x="236.32249" xlink:href="#m65c2256429" y="307.584"/>
      </g>
     </g>
     <g id="text_3">
      <!-- three -->
      <g transform="translate(238.621049 336.61685)rotate(-90)scale(0.0833 -0.0833)">
       <defs>
        <path d="M 54.890625 33.015625 
L 54.890625 0 
L 45.90625 0 
L 45.90625 32.71875 
Q 45.90625 40.484375 42.875 44.328125 
Q 39.84375 48.1875 33.796875 48.1875 
Q 26.515625 48.1875 22.3125 43.546875 
Q 18.109375 38.921875 18.109375 30.90625 
L 18.109375 0 
L 9.078125 0 
L 9.078125 75.984375 
L 18.109375 75.984375 
L 18.109375 46.1875 
Q 21.34375 51.125 25.703125 53.5625 
Q 30.078125 56 35.796875 56 
Q 45.21875 56 50.046875 50.171875 
Q 54.890625 44.34375 54.890625 33.015625 
z
" id="DejaVuSans-104"/>
        <path d="M 41.109375 46.296875 
Q 39.59375 47.171875 37.8125 47.578125 
Q 36.03125 48 33.890625 48 
Q 26.265625 48 22.1875 43.046875 
Q 18.109375 38.09375 18.109375 28.8125 
L 18.109375 0 
L 9.078125 0 
L 9.078125 54.6875 
L 18.109375 54.6875 
L 18.109375 46.1875 
Q 20.953125 51.171875 25.484375 53.578125 
Q 30.03125 56 36.53125 56 
Q 37.453125 56 38.578125 55.875 
Q 39.703125 55.765625 41.0625 55.515625 
z
" id="DejaVuSans-114"/>
       </defs>
       <use xlink:href="#DejaVuSans-116"/>
       <use x="39.208984" xlink:href="#DejaVuSans-104"/>
       <use x="102.587891" xlink:href="#DejaVuSans-114"/>
       <use x="141.451172" xlink:href="#DejaVuSans-101"/>
       <use x="202.974609" xlink:href="#DejaVuSans-101"/>
      </g>
     </g>
    </g>
    <g id="xtick_4">
     <g id="line2d_4">
      <g>
       <use style="stroke:#000000;stroke-width:0.8;" x="317.567371" xlink:href="#m65c2256429" y="307.584"/>
      </g>
     </g>
     <g id="text_4">
      <!-- four -->
      <g transform="translate(319.86593 331.316887)rotate(-90)scale(0.0833 -0.0833)">
       <defs>
        <path d="M 37.109375 75.984375 
L 37.109375 68.5 
L 28.515625 68.5 
Q 23.6875 68.5 21.796875 66.546875 
Q 19.921875 64.59375 19.921875 59.515625 
L 19.921875 54.6875 
L 34.71875 54.6875 
L 34.71875 47.703125 
L 19.921875 47.703125 
L 19.921875 0 
L 10.890625 0 
L 10.890625 47.703125 
L 2.296875 47.703125 
L 2.296875 54.6875 
L 10.890625 54.6875 
L 10.890625 58.5 
Q 10.890625 67.625 15.140625 71.796875 
Q 19.390625 75.984375 28.609375 75.984375 
z
" id="DejaVuSans-102"/>
        <path d="M 8.5 21.578125 
L 8.5 54.6875 
L 17.484375 54.6875 
L 17.484375 21.921875 
Q 17.484375 14.15625 20.5 10.265625 
Q 23.53125 6.390625 29.59375 6.390625 
Q 36.859375 6.390625 41.078125 11.03125 
Q 45.3125 15.671875 45.3125 23.6875 
L 45.3125 54.6875 
L 54.296875 54.6875 
L 54.296875 0 
L 45.3125 0 
L 45.3125 8.40625 
Q 42.046875 3.421875 37.71875 1 
Q 33.40625 -1.421875 27.6875 -1.421875 
Q 18.265625 -1.421875 13.375 4.4375 
Q 8.5 10.296875 8.5 21.578125 
z
M 31.109375 56 
z
" id="DejaVuSans-117"/>
       </defs>
       <use xlink:href="#DejaVuSans-102"/>
       <use x="35.205078" xlink:href="#DejaVuSans-111"/>
       <use x="96.386719" xlink:href="#DejaVuSans-117"/>
       <use x="159.765625" xlink:href="#DejaVuSans-114"/>
      </g>
     </g>
    </g>
    <g id="xtick_5">
     <g id="line2d_5">
      <g>
       <use style="stroke:#000000;stroke-width:0.8;" x="398.812252" xlink:href="#m65c2256429" y="307.584"/>
      </g>
     </g>
     <g id="text_5">
      <!-- five -->
      <g transform="translate(401.110812 329.88647)rotate(-90)scale(0.0833 -0.0833)">
       <defs>
        <path d="M 9.421875 54.6875 
L 18.40625 54.6875 
L 18.40625 0 
L 9.421875 0 
z
M 9.421875 75.984375 
L 18.40625 75.984375 
L 18.40625 64.59375 
L 9.421875 64.59375 
z
" id="DejaVuSans-105"/>
        <path d="M 2.984375 54.6875 
L 12.5 54.6875 
L 29.59375 8.796875 
L 46.6875 54.6875 
L 56.203125 54.6875 
L 35.6875 0 
L 23.484375 0 
z
" id="DejaVuSans-118"/>
       </defs>
       <use xlink:href="#DejaVuSans-102"/>
       <use x="35.205078" xlink:href="#DejaVuSans-105"/>
       <use x="62.988281" xlink:href="#DejaVuSans-118"/>
       <use x="122.167969" xlink:href="#DejaVuSans-101"/>
      </g>
     </g>
    </g>
    <g id="text_6">
     <!-- Levels -->
     <g transform="translate(220.355312 348.215287)scale(0.1 -0.1)">
      <defs>
       <path d="M 9.8125 72.90625 
L 19.671875 72.90625 
L 19.671875 8.296875 
L 55.171875 8.296875 
L 55.171875 0 
L 9.8125 0 
z
" id="DejaVuSans-76"/>
       <path d="M 9.421875 75.984375 
L 18.40625 75.984375 
L 18.40625 0 
L 9.421875 0 
z
" id="DejaVuSans-108"/>
       <path d="M 44.28125 53.078125 
L 44.28125 44.578125 
Q 40.484375 46.53125 36.375 47.5 
Q 32.28125 48.484375 27.875 48.484375 
Q 21.1875 48.484375 17.84375 46.4375 
Q 14.5 44.390625 14.5 40.28125 
Q 14.5 37.15625 16.890625 35.375 
Q 19.28125 33.59375 26.515625 31.984375 
L 29.59375 31.296875 
Q 39.15625 29.25 43.1875 25.515625 
Q 47.21875 21.78125 47.21875 15.09375 
Q 47.21875 7.46875 41.1875 3.015625 
Q 35.15625 -1.421875 24.609375 -1.421875 
Q 20.21875 -1.421875 15.453125 -0.5625 
Q 10.6875 0.296875 5.421875 2 
L 5.421875 11.28125 
Q 10.40625 8.6875 15.234375 7.390625 
Q 20.0625 6.109375 24.8125 6.109375 
Q 31.15625 6.109375 34.5625 8.28125 
Q 37.984375 10.453125 37.984375 14.40625 
Q 37.984375 18.0625 35.515625 20.015625 
Q 33.0625 21.96875 24.703125 23.78125 
L 21.578125 24.515625 
Q 13.234375 26.265625 9.515625 29.90625 
Q 5.8125 33.546875 5.8125 39.890625 
Q 5.8125 47.609375 11.28125 51.796875 
Q 16.75 56 26.8125 56 
Q 31.78125 56 36.171875 55.265625 
Q 40.578125 54.546875 44.28125 53.078125 
z
" id="DejaVuSans-115"/>
      </defs>
      <use xlink:href="#DejaVuSans-76"/>
      <use x="53.962891" xlink:href="#DejaVuSans-101"/>
      <use x="115.486328" xlink:href="#DejaVuSans-118"/>
      <use x="174.666016" xlink:href="#DejaVuSans-101"/>
      <use x="236.189453" xlink:href="#DejaVuSans-108"/>
      <use x="263.972656" xlink:href="#DejaVuSans-115"/>
     </g>
    </g>
   </g>
   <g id="matplotlib.axis_2">
    <g id="ytick_1">
     <g id="line2d_6">
      <defs>
       <path d="M 0 0 
L -3.5 0 
" id="m52ed5aae2b" style="stroke:#000000;stroke-width:0.8;"/>
      </defs>
      <g>
       <use style="stroke:#000000;stroke-width:0.8;" x="57.6" xlink:href="#m52ed5aae2b" y="302.257725"/>
      </g>
     </g>
     <g id="text_7">
      <!-- −30 -->
      <g transform="translate(29.495313 306.056943)scale(0.1 -0.1)">
       <defs>
        <path d="M 10.59375 35.5 
L 73.1875 35.5 
L 73.1875 27.203125 
L 10.59375 27.203125 
z
" id="DejaVuSans-8722"/>
        <path d="M 40.578125 39.3125 
Q 47.65625 37.796875 51.625 33 
Q 55.609375 28.21875 55.609375 21.1875 
Q 55.609375 10.40625 48.1875 4.484375 
Q 40.765625 -1.421875 27.09375 -1.421875 
Q 22.515625 -1.421875 17.65625 -0.515625 
Q 12.796875 0.390625 7.625 2.203125 
L 7.625 11.71875 
Q 11.71875 9.328125 16.59375 8.109375 
Q 21.484375 6.890625 26.8125 6.890625 
Q 36.078125 6.890625 40.9375 10.546875 
Q 45.796875 14.203125 45.796875 21.1875 
Q 45.796875 27.640625 41.28125 31.265625 
Q 36.765625 34.90625 28.71875 34.90625 
L 20.21875 34.90625 
L 20.21875 43.015625 
L 29.109375 43.015625 
Q 36.375 43.015625 40.234375 45.921875 
Q 44.09375 48.828125 44.09375 54.296875 
Q 44.09375 59.90625 40.109375 62.90625 
Q 36.140625 65.921875 28.71875 65.921875 
Q 24.65625 65.921875 20.015625 65.03125 
Q 15.375 64.15625 9.8125 62.3125 
L 9.8125 71.09375 
Q 15.4375 72.65625 20.34375 73.4375 
Q 25.25 74.21875 29.59375 74.21875 
Q 40.828125 74.21875 47.359375 69.109375 
Q 53.90625 64.015625 53.90625 55.328125 
Q 53.90625 49.265625 50.4375 45.09375 
Q 46.96875 40.921875 40.578125 39.3125 
z
" id="DejaVuSans-51"/>
        <path d="M 31.78125 66.40625 
Q 24.171875 66.40625 20.328125 58.90625 
Q 16.5 51.421875 16.5 36.375 
Q 16.5 21.390625 20.328125 13.890625 
Q 24.171875 6.390625 31.78125 6.390625 
Q 39.453125 6.390625 43.28125 13.890625 
Q 47.125 21.390625 47.125 36.375 
Q 47.125 51.421875 43.28125 58.90625 
Q 39.453125 66.40625 31.78125 66.40625 
z
M 31.78125 74.21875 
Q 44.046875 74.21875 50.515625 64.515625 
Q 56.984375 54.828125 56.984375 36.375 
Q 56.984375 17.96875 50.515625 8.265625 
Q 44.046875 -1.421875 31.78125 -1.421875 
Q 19.53125 -1.421875 13.0625 8.265625 
Q 6.59375 17.96875 6.59375 36.375 
Q 6.59375 54.828125 13.0625 64.515625 
Q 19.53125 74.21875 31.78125 74.21875 
z
" id="DejaVuSans-48"/>
       </defs>
       <use xlink:href="#DejaVuSans-8722"/>
       <use x="83.789062" xlink:href="#DejaVuSans-51"/>
       <use x="147.412109" xlink:href="#DejaVuSans-48"/>
      </g>
     </g>
    </g>
    <g id="ytick_2">
     <g id="line2d_7">
      <g>
       <use style="stroke:#000000;stroke-width:0.8;" x="57.6" xlink:href="#m52ed5aae2b" y="250.819853"/>
      </g>
     </g>
     <g id="text_8">
      <!-- −20 -->
      <g transform="translate(29.495313 254.619072)scale(0.1 -0.1)">
       <defs>
        <path d="M 19.1875 8.296875 
L 53.609375 8.296875 
L 53.609375 0 
L 7.328125 0 
L 7.328125 8.296875 
Q 12.9375 14.109375 22.625 23.890625 
Q 32.328125 33.6875 34.8125 36.53125 
Q 39.546875 41.84375 41.421875 45.53125 
Q 43.3125 49.21875 43.3125 52.78125 
Q 43.3125 58.59375 39.234375 62.25 
Q 35.15625 65.921875 28.609375 65.921875 
Q 23.96875 65.921875 18.8125 64.3125 
Q 13.671875 62.703125 7.8125 59.421875 
L 7.8125 69.390625 
Q 13.765625 71.78125 18.9375 73 
Q 24.125 74.21875 28.421875 74.21875 
Q 39.75 74.21875 46.484375 68.546875 
Q 53.21875 62.890625 53.21875 53.421875 
Q 53.21875 48.921875 51.53125 44.890625 
Q 49.859375 40.875 45.40625 35.40625 
Q 44.1875 33.984375 37.640625 27.21875 
Q 31.109375 20.453125 19.1875 8.296875 
z
" id="DejaVuSans-50"/>
       </defs>
       <use xlink:href="#DejaVuSans-8722"/>
       <use x="83.789062" xlink:href="#DejaVuSans-50"/>
       <use x="147.412109" xlink:href="#DejaVuSans-48"/>
      </g>
     </g>
    </g>
    <g id="ytick_3">
     <g id="line2d_8">
      <g>
       <use style="stroke:#000000;stroke-width:0.8;" x="57.6" xlink:href="#m52ed5aae2b" y="199.381982"/>
      </g>
     </g>
     <g id="text_9">
      <!-- −10 -->
      <g transform="translate(29.495313 203.1812)scale(0.1 -0.1)">
       <defs>
        <path d="M 12.40625 8.296875 
L 28.515625 8.296875 
L 28.515625 63.921875 
L 10.984375 60.40625 
L 10.984375 69.390625 
L 28.421875 72.90625 
L 38.28125 72.90625 
L 38.28125 8.296875 
L 54.390625 8.296875 
L 54.390625 0 
L 12.40625 0 
z
" id="DejaVuSans-49"/>
       </defs>
       <use xlink:href="#DejaVuSans-8722"/>
       <use x="83.789062" xlink:href="#DejaVuSans-49"/>
       <use x="147.412109" xlink:href="#DejaVuSans-48"/>
      </g>
     </g>
    </g>
    <g id="ytick_4">
     <g id="line2d_9">
      <g>
       <use style="stroke:#000000;stroke-width:0.8;" x="57.6" xlink:href="#m52ed5aae2b" y="147.94411"/>
      </g>
     </g>
     <g id="text_10">
      <!-- 0 -->
      <g transform="translate(44.2375 151.743329)scale(0.1 -0.1)">
       <use xlink:href="#DejaVuSans-48"/>
      </g>
     </g>
    </g>
    <g id="ytick_5">
     <g id="line2d_10">
      <g>
       <use style="stroke:#000000;stroke-width:0.8;" x="57.6" xlink:href="#m52ed5aae2b" y="96.506239"/>
      </g>
     </g>
     <g id="text_11">
      <!-- 10 -->
      <g transform="translate(37.875 100.305458)scale(0.1 -0.1)">
       <use xlink:href="#DejaVuSans-49"/>
       <use x="63.623047" xlink:href="#DejaVuSans-48"/>
      </g>
     </g>
    </g>
    <g id="ytick_6">
     <g id="line2d_11">
      <g>
       <use style="stroke:#000000;stroke-width:0.8;" x="57.6" xlink:href="#m52ed5aae2b" y="45.068368"/>
      </g>
     </g>
     <g id="text_12">
      <!-- 20 -->
      <g transform="translate(37.875 48.867586)scale(0.1 -0.1)">
       <use xlink:href="#DejaVuSans-50"/>
       <use x="63.623047" xlink:href="#DejaVuSans-48"/>
      </g>
     </g>
    </g>
   </g>
   <g id="line2d_12">
    <path clip-path="url(#p6645409297)" d="M 73.832727 141.955175 
L 74.157707 128.965323 
L 74.482686 122.563876 
L 74.807666 109.966456 
L 75.132645 106.893126 
L 75.457625 101.641384 
L 75.782604 104.942049 
L 76.107584 110.104798 
L 76.757543 112.412889 
L 77.082523 112.396484 
L 77.407502 122.636367 
L 77.732482 128.706324 
L 78.057461 120.223966 
L 78.70742 131.914914 
L 79.0324 124.953337 
L 79.682359 119.52019 
L 80.332318 129.052526 
L 80.657297 142.817733 
L 80.982277 143.832024 
L 81.307256 139.250401 
L 81.632236 141.767078 
L 81.957215 139.863038 
L 82.282195 135.383064 
L 82.607174 139.858347 
L 82.932154 140.174202 
L 83.257133 137.176425 
L 83.582113 137.094121 
L 83.907093 125.876953 
L 84.232072 136.00723 
L 84.557052 141.683025 
L 85.207011 142.458041 
L 85.53199 141.396844 
L 85.85697 152.775899 
L 86.181949 149.422953 
L 86.506929 147.709358 
L 86.831908 150.609091 
L 87.156888 151.768283 
L 87.481867 144.957534 
L 87.806847 146.811679 
L 88.131826 154.12693 
L 88.456806 154.623677 
L 88.781785 155.845749 
L 89.106765 154.024681 
L 89.431744 145.151065 
L 89.756724 141.337918 
L 90.081704 140.759014 
L 90.731663 132.183463 
L 91.381622 142.714477 
L 91.706601 145.187805 
L 92.031581 144.897472 
L 92.35656 138.137045 
L 92.68154 134.668123 
L 93.006519 137.316925 
L 93.331499 128.620005 
L 93.656478 133.012243 
L 93.981458 133.327174 
L 94.306437 132.236971 
L 94.631417 130.041779 
L 94.956396 137.837418 
L 95.281376 135.942812 
L 95.606355 135.52323 
L 95.931335 136.650369 
L 96.581294 122.077442 
L 96.906274 126.184088 
L 97.231253 120.387819 
L 97.556233 124.323475 
L 97.881212 123.999409 
L 98.206192 129.638936 
L 98.531171 124.476087 
L 98.856151 130.417901 
L 99.18113 131.746926 
L 99.50611 129.63291 
L 99.831089 130.906156 
L 100.156069 129.008059 
L 100.481048 126.345562 
L 100.806028 128.310353 
L 101.455987 117.761085 
L 102.105946 121.573916 
L 102.430925 119.736924 
L 102.755905 125.637908 
L 103.080885 128.210707 
L 103.405864 137.665825 
L 103.730844 137.391831 
L 104.055823 136.342331 
L 104.380803 142.721218 
L 104.705782 135.586301 
L 105.030762 131.50814 
L 105.355741 144.817655 
L 105.680721 151.586209 
L 106.0057 149.553259 
L 106.655659 159.645461 
L 106.980639 163.349569 
L 107.630598 168.595842 
L 107.955577 164.45053 
L 108.280557 157.888609 
L 108.605536 159.489418 
L 108.930516 165.726764 
L 109.255495 167.589326 
L 109.580475 168.04232 
L 109.905455 162.35489 
L 110.230434 160.679392 
L 110.555414 161.406199 
L 110.880393 169.992386 
L 111.530352 158.435027 
L 111.855332 159.568572 
L 112.180311 170.548523 
L 112.505291 162.007209 
L 112.83027 157.810215 
L 113.15525 156.466238 
L 113.480229 153.503421 
L 113.805209 153.220147 
L 114.130188 151.358011 
L 114.455168 152.961902 
L 114.780147 157.041668 
L 115.105127 149.76029 
L 115.430106 152.679907 
L 115.755086 144.790172 
L 116.080066 147.457956 
L 116.405045 145.212606 
L 116.730025 153.667951 
L 117.704963 141.677652 
L 118.029943 138.093473 
L 118.354922 141.528355 
L 118.679902 150.592479 
L 119.004881 151.207079 
L 119.329861 144.830633 
L 119.65484 144.992869 
L 119.97982 139.864149 
L 120.304799 141.624662 
L 120.629779 144.3969 
L 120.954758 142.994211 
L 121.279738 128.205841 
L 121.604717 130.98234 
L 121.929697 131.00446 
L 122.254676 134.875723 
L 122.579656 135.358203 
L 122.904636 130.365084 
L 123.229615 133.415495 
L 123.554595 124.457557 
L 123.879574 138.246019 
L 124.529533 121.274249 
L 124.854513 126.713552 
L 125.179492 128.272254 
L 125.504472 138.728973 
L 126.154431 133.374836 
L 126.47941 146.309266 
L 126.80439 145.266013 
L 127.129369 130.730079 
L 127.454349 130.695063 
L 127.779328 130.77929 
L 128.104308 132.122313 
L 128.429287 132.922744 
L 128.754267 137.480991 
L 129.079247 134.051151 
L 129.404226 149.125941 
L 129.729206 141.541159 
L 130.054185 138.810308 
L 130.379165 139.822921 
L 130.704144 145.607975 
L 131.029124 139.949294 
L 131.354103 139.288437 
L 131.679083 143.164203 
L 132.004062 148.746224 
L 132.329042 156.476585 
L 132.979001 153.042443 
L 133.30398 163.620114 
L 133.62896 170.517817 
L 133.953939 173.354689 
L 134.278919 170.904194 
L 134.603898 169.818678 
L 134.928878 183.719852 
L 135.578837 192.84358 
L 135.903817 191.780427 
L 136.228796 186.597763 
L 136.553776 183.782012 
L 137.528714 167.779283 
L 138.178673 175.127808 
L 138.503653 166.896358 
L 138.828632 166.122551 
L 139.153612 162.392598 
L 139.478591 164.035436 
L 139.803571 168.315352 
L 140.12855 161.415159 
L 140.45353 151.088061 
L 140.778509 156.615743 
L 141.103489 146.641309 
L 141.428468 157.836763 
L 142.078428 145.17014 
L 142.403407 143.223162 
L 142.728387 144.533507 
L 143.053366 142.992967 
L 143.378346 145.608916 
L 143.703325 158.125546 
L 144.028305 157.177547 
L 144.353284 153.158649 
L 144.678264 158.819834 
L 145.003243 166.950396 
L 145.653202 170.879145 
L 145.978182 167.905789 
L 146.303161 166.128554 
L 146.628141 163.403139 
L 146.95312 156.168389 
L 147.2781 154.924261 
L 147.928059 164.224363 
L 148.253038 165.599884 
L 148.578018 152.859323 
L 148.902998 158.009763 
L 149.227977 154.944912 
L 149.552957 147.285229 
L 149.877936 150.276443 
L 150.202916 138.359924 
L 150.852875 134.834365 
L 151.177854 143.255653 
L 151.502834 142.884561 
L 151.827813 148.995439 
L 152.477772 154.583997 
L 152.802752 153.613792 
L 153.127731 145.420996 
L 153.452711 150.00565 
L 153.77769 149.538102 
L 154.10267 137.313483 
L 154.427649 139.91345 
L 154.752629 140.122295 
L 155.077609 139.912119 
L 155.402588 141.94507 
L 155.727568 139.992633 
L 156.052547 141.853474 
L 156.377527 142.695054 
L 156.702506 148.802986 
L 157.027486 148.039375 
L 157.352465 153.342753 
L 157.677445 154.144496 
L 158.002424 154.50227 
L 158.327404 154.37449 
L 158.652383 161.274837 
L 158.977363 156.814307 
L 159.952301 164.245657 
L 160.277281 162.489988 
L 160.60226 164.101063 
L 160.92724 175.837704 
L 161.252219 172.77035 
L 161.577199 177.923347 
L 161.902179 178.178727 
L 162.552138 176.767826 
L 162.877117 178.686128 
L 163.202097 174.415146 
L 163.527076 174.044008 
L 163.852056 177.703485 
L 164.177035 183.126638 
L 164.502015 177.033976 
L 165.151974 191.399304 
L 165.476953 192.508815 
L 165.801933 190.313879 
L 166.126912 189.725015 
L 166.451892 189.399576 
L 166.776871 190.228999 
L 167.101851 192.179274 
L 167.42683 189.61481 
L 167.75181 202.608933 
L 168.726749 217.825224 
L 169.051728 215.026989 
L 169.376708 226.64241 
L 169.701687 222.514062 
L 170.026667 216.605569 
L 170.351646 219.054103 
L 171.001605 212.872782 
L 171.326585 204.287977 
L 171.651564 217.502884 
L 171.976544 217.267687 
L 172.301523 219.398707 
L 172.626503 218.907111 
L 172.951482 222.123788 
L 173.276462 226.584835 
L 173.601441 227.867481 
L 173.926421 227.333306 
L 174.2514 226.074375 
L 174.57638 232.689532 
L 174.90136 231.943765 
L 175.226339 233.737369 
L 175.551319 231.637973 
L 176.201278 239.867865 
L 176.526257 236.570008 
L 176.851237 236.025045 
L 177.176216 233.170747 
L 177.501196 234.876262 
L 177.826175 228.032886 
L 178.151155 234.910145 
L 178.476134 237.963569 
L 179.126093 231.808704 
L 179.451073 233.500832 
L 179.776052 229.619869 
L 180.101032 231.182319 
L 180.426011 229.735276 
L 180.750991 236.983271 
L 181.40095 227.451249 
L 181.72593 228.612407 
L 182.050909 225.804687 
L 182.375889 235.917376 
L 182.700868 231.374521 
L 183.025848 234.02236 
L 183.350827 234.478894 
L 183.675807 232.59738 
L 184.000786 232.103316 
L 184.325766 229.831045 
L 184.650745 232.424807 
L 185.300704 215.496496 
L 185.625684 219.909299 
L 185.950663 218.198715 
L 186.275643 221.996234 
L 186.600622 219.250027 
L 187.250581 220.119622 
L 187.575561 222.957377 
L 187.900541 232.200196 
L 188.22552 229.301721 
L 188.5505 231.604391 
L 188.875479 231.725022 
L 189.200459 229.571025 
L 189.525438 237.218516 
L 189.850418 232.466957 
L 190.175397 222.463791 
L 190.500377 226.134736 
L 190.825356 225.490088 
L 191.150336 224.407085 
L 191.475315 224.684398 
L 192.125274 215.532092 
L 192.450254 220.219712 
L 192.775233 227.647005 
L 193.100213 224.130438 
L 193.750172 229.606267 
L 194.075152 229.421192 
L 194.400131 218.990486 
L 194.725111 225.796922 
L 195.05009 221.773462 
L 195.37507 223.229648 
L 195.700049 223.649743 
L 196.350008 232.978896 
L 196.674988 229.362333 
L 196.999967 227.106059 
L 197.324947 226.792675 
L 197.649926 224.509218 
L 197.974906 221.356971 
L 198.299885 220.771382 
L 198.624865 216.716431 
L 198.949844 221.106135 
L 199.274824 219.736868 
L 199.924783 220.33694 
L 200.574742 214.302007 
L 200.899722 209.599219 
L 201.224701 207.307984 
L 201.549681 206.893767 
L 201.87466 205.963297 
L 202.19964 199.973348 
L 202.524619 212.646316 
L 202.849599 214.013015 
L 203.174578 208.064566 
L 203.499558 210.420506 
L 203.824537 208.718854 
L 204.149517 204.720186 
L 204.474496 210.514931 
L 204.799476 209.916424 
L 205.124455 216.319134 
L 205.449435 215.110386 
L 205.774414 210.997213 
L 206.099394 214.693425 
L 206.424373 213.092176 
L 207.074333 205.482723 
L 207.724292 200.341166 
L 208.049271 196.192195 
L 208.374251 199.225989 
L 208.69923 200.536016 
L 209.02421 203.504096 
L 209.349189 198.194203 
L 209.674169 204.504794 
L 209.999148 206.695463 
L 210.324128 199.922918 
L 210.649107 199.040809 
L 210.974087 197.009435 
L 211.299066 201.799678 
L 211.624046 203.430563 
L 211.949025 196.190816 
L 212.274005 201.048663 
L 212.598984 209.183969 
L 212.923964 202.722659 
L 213.248943 203.305865 
L 213.573923 208.510442 
L 213.898903 215.740185 
L 214.223882 220.099701 
L 214.548862 221.42547 
L 214.873841 221.166083 
L 215.198821 224.959348 
L 215.5238 222.529224 
L 215.84878 215.873681 
L 216.173759 215.336475 
L 216.498739 210.12731 
L 216.823718 198.779203 
L 217.148698 195.56152 
L 217.473677 196.203376 
L 218.123636 214.259084 
L 218.448616 214.001127 
L 218.773595 214.513551 
L 219.098575 215.945247 
L 219.423554 212.455132 
L 219.748534 206.498339 
L 220.073514 206.37141 
L 220.398493 205.630514 
L 220.723473 198.154067 
L 221.048452 207.735666 
L 221.373432 212.037183 
L 221.698411 212.858738 
L 222.34837 223.135295 
L 222.67335 224.961636 
L 222.998329 231.741309 
L 223.323309 227.028945 
L 223.648288 237.709237 
L 223.973268 235.546039 
L 224.298247 231.090106 
L 224.623227 233.299921 
L 224.948206 232.545852 
L 225.273186 223.100627 
L 225.598165 226.689513 
L 225.923145 223.491062 
L 226.248124 226.036243 
L 226.898084 236.483725 
L 227.223063 233.900435 
L 227.873022 237.668005 
L 228.198002 234.849581 
L 228.522981 241.589762 
L 229.17294 231.596776 
L 229.49792 227.844665 
L 229.822899 237.624082 
L 230.147879 235.316997 
L 230.472858 236.723571 
L 230.797838 233.947636 
L 231.122817 232.466186 
L 231.447797 235.891429 
L 231.772776 233.056033 
L 232.097756 245.231462 
L 232.422735 248.835284 
L 233.072695 244.182562 
L 233.397674 246.766222 
L 233.722654 239.777175 
L 234.047633 247.870584 
L 234.372613 245.810716 
L 234.697592 244.884488 
L 235.022572 252.901555 
L 235.347551 249.460217 
L 235.672531 248.262436 
L 235.99751 225.974962 
L 236.32249 219.335658 
L 236.647469 225.210971 
L 236.972449 223.891482 
L 237.297428 218.219784 
L 237.622408 219.141188 
L 237.947387 208.548868 
L 238.272367 212.359256 
L 238.597346 214.458031 
L 238.922326 204.799812 
L 239.247305 204.565461 
L 239.897265 209.579494 
L 240.222244 209.239339 
L 240.547224 216.791088 
L 240.872203 211.350226 
L 241.197183 211.509611 
L 241.522162 210.883137 
L 241.847142 201.658123 
L 242.172121 197.808227 
L 242.82208 215.132853 
L 243.14706 207.365147 
L 243.472039 202.413295 
L 243.797019 200.408412 
L 244.121998 196.469544 
L 244.446978 194.530833 
L 245.096937 198.119828 
L 245.421916 189.565881 
L 245.746896 184.985411 
L 246.071876 189.492877 
L 246.396855 187.249333 
L 247.046814 189.213034 
L 247.696773 200.477598 
L 248.021753 199.751363 
L 248.346732 199.470788 
L 248.671712 191.994049 
L 248.996691 198.366608 
L 249.321671 192.361357 
L 249.64665 201.979509 
L 249.97163 198.5757 
L 250.296609 208.281667 
L 250.621589 207.991423 
L 250.946568 210.847396 
L 251.271548 207.839289 
L 251.596527 214.440149 
L 252.246486 195.024293 
L 252.571466 193.721239 
L 253.546405 200.563405 
L 253.871384 205.225227 
L 254.196364 206.113861 
L 255.171302 203.694483 
L 255.496282 197.935818 
L 255.821261 195.956473 
L 256.146241 198.647767 
L 256.47122 192.63307 
L 257.121179 197.614828 
L 257.446159 196.825951 
L 257.771138 194.912313 
L 258.096118 186.231422 
L 258.421097 195.167984 
L 258.746077 196.971506 
L 259.071057 196.114585 
L 259.721016 181.780231 
L 260.045995 187.930712 
L 260.370975 190.637857 
L 260.695954 192.388322 
L 261.670893 176.663515 
L 261.995872 175.336481 
L 262.320852 175.326485 
L 262.645831 179.162767 
L 262.970811 186.427497 
L 263.29579 186.825992 
L 263.62077 193.094558 
L 263.945749 196.933406 
L 264.270729 192.355311 
L 264.595708 194.607006 
L 264.920688 192.420734 
L 265.245667 175.027656 
L 265.570647 177.219789 
L 265.895627 181.773752 
L 266.220606 179.830026 
L 266.545586 185.278381 
L 266.870565 181.676343 
L 267.195545 185.966336 
L 267.520524 187.342808 
L 267.845504 177.505237 
L 268.170483 180.12749 
L 268.495463 179.020061 
L 268.820442 175.346593 
L 269.470401 180.364045 
L 269.795381 181.601011 
L 270.12036 183.433641 
L 270.44534 181.560575 
L 270.770319 189.481306 
L 271.095299 186.753385 
L 271.745258 175.076349 
L 272.720197 190.002338 
L 273.045176 189.818727 
L 273.370156 191.518952 
L 273.695135 193.970697 
L 274.020115 201.464755 
L 274.670074 194.870116 
L 274.995053 195.798158 
L 275.320033 195.757953 
L 275.645012 193.653862 
L 276.294971 180.856681 
L 276.619951 179.434927 
L 276.94493 178.664748 
L 277.26991 174.209409 
L 277.594889 175.509608 
L 277.919869 175.927648 
L 278.244848 173.647747 
L 278.569828 170.393603 
L 278.894808 170.343654 
L 279.219787 180.337933 
L 279.544767 174.295995 
L 279.869746 173.165522 
L 280.194726 169.159944 
L 280.519705 172.362998 
L 280.844685 167.375156 
L 281.169664 166.082762 
L 281.819623 181.399374 
L 282.144603 183.947935 
L 282.469582 172.868749 
L 282.794562 175.426189 
L 283.119541 170.926325 
L 283.444521 170.276388 
L 283.7695 160.813585 
L 284.09448 159.972899 
L 284.419459 165.955027 
L 284.744439 162.76831 
L 285.069419 161.069277 
L 285.394398 162.64835 
L 285.719378 172.025743 
L 286.369337 162.014249 
L 286.694316 172.690918 
L 287.019296 174.627548 
L 287.344275 168.186222 
L 287.669255 173.372653 
L 287.994234 182.359612 
L 288.319214 180.899695 
L 288.644193 191.73516 
L 288.969173 190.751812 
L 289.619132 196.054203 
L 289.944111 194.516119 
L 290.269091 187.540302 
L 290.59407 191.77374 
L 291.244029 207.747239 
L 291.569009 209.323363 
L 291.893989 208.357953 
L 292.218968 203.680823 
L 292.543948 197.201853 
L 292.868927 201.753699 
L 293.193907 201.716091 
L 293.518886 203.541809 
L 293.843866 209.944091 
L 294.168845 212.023188 
L 294.493825 215.275397 
L 295.143784 224.547776 
L 295.468763 221.372201 
L 296.118722 230.87995 
L 296.443702 239.926717 
L 296.768681 238.863468 
L 297.093661 242.777116 
L 297.41864 239.334394 
L 297.74362 245.153785 
L 298.0686 243.159683 
L 298.393579 252.186045 
L 298.718559 248.393227 
L 299.043538 246.762332 
L 299.368518 248.51565 
L 300.018477 245.756735 
L 300.343456 236.903271 
L 300.993415 242.329019 
L 301.318395 243.890573 
L 301.968354 249.411235 
L 302.618313 241.585243 
L 302.943292 241.715609 
L 303.268272 245.551109 
L 303.593251 241.793678 
L 304.24321 230.261132 
L 304.56819 230.210731 
L 304.89317 230.2787 
L 305.218149 239.360015 
L 305.543129 234.875608 
L 305.868108 237.65697 
L 306.193088 237.906248 
L 306.518067 230.728661 
L 306.843047 238.563376 
L 307.168026 234.529704 
L 307.493006 235.090711 
L 308.467944 229.837576 
L 308.792924 230.622919 
L 309.117903 233.397678 
L 309.442883 241.656296 
L 309.767862 244.63566 
L 310.092842 250.274528 
L 310.417821 263.882876 
L 310.742801 265.188539 
L 311.067781 258.329331 
L 311.39276 271.768829 
L 311.71774 269.080459 
L 312.042719 267.709019 
L 312.367699 270.169252 
L 312.692678 264.146484 
L 313.017658 252.729253 
L 313.667617 263.795151 
L 313.992596 255.607371 
L 314.317576 266.086417 
L 314.642555 270.714852 
L 314.967535 269.790109 
L 315.292514 257.902393 
L 315.617494 261.001785 
L 315.942473 261.104034 
L 316.267453 259.025768 
L 316.917412 269.208721 
L 317.242391 265.731416 
L 317.567371 271.251393 
L 318.21733 288.003824 
L 318.54231 291.425417 
L 319.192269 281.113877 
L 319.517248 288.521482 
L 320.167207 273.369754 
L 320.492187 271.754683 
L 320.817166 268.026367 
L 321.142146 282.225556 
L 321.467125 285.123382 
L 321.792105 294.527523 
L 322.117084 294.01103 
L 322.442064 291.72917 
L 322.767043 284.830868 
L 323.092023 284.424318 
L 323.417002 287.706897 
L 324.066962 282.66508 
L 324.391941 282.076982 
L 324.716921 283.062252 
L 325.0419 283.030935 
L 325.36688 295.488 
L 325.691859 293.231043 
L 326.016839 282.035678 
L 326.666798 289.325904 
L 326.991777 291.789274 
L 327.316757 288.156221 
L 327.641736 280.068541 
L 327.966716 278.35707 
L 328.291695 275.984499 
L 328.616675 275.597358 
L 328.941654 269.274743 
L 329.266634 278.410657 
L 329.591613 283.543058 
L 329.916593 278.142045 
L 330.241572 280.099327 
L 330.566552 278.274213 
L 330.891532 279.216913 
L 331.216511 275.495623 
L 331.541491 274.204745 
L 331.86647 271.135892 
L 332.19145 272.510848 
L 332.516429 271.9743 
L 332.841409 265.93016 
L 333.166388 265.071033 
L 333.491368 266.739758 
L 333.816347 259.536795 
L 334.141327 260.42435 
L 334.466306 259.308048 
L 334.791286 259.829074 
L 335.116265 261.711667 
L 335.441245 259.535554 
L 335.766224 254.209644 
L 336.416183 239.146043 
L 336.741163 236.672538 
L 337.066143 235.765648 
L 337.391122 232.74116 
L 338.041081 239.016749 
L 338.366061 236.75922 
L 338.69104 238.742232 
L 339.01602 237.738863 
L 339.340999 225.768323 
L 339.665979 233.008198 
L 339.990958 227.5406 
L 340.315938 226.23579 
L 340.640917 223.141226 
L 340.965897 222.81262 
L 341.290876 232.116442 
L 341.615856 234.801143 
L 342.265815 245.26402 
L 342.590794 238.830397 
L 342.915774 229.750035 
L 343.240753 225.744023 
L 343.565733 219.126783 
L 343.890713 218.113559 
L 344.215692 219.383823 
L 344.540672 216.463227 
L 345.51561 201.179143 
L 345.84059 211.510181 
L 346.165569 209.02778 
L 346.490549 201.025613 
L 346.815528 205.931419 
L 347.465487 199.184326 
L 347.790467 201.74954 
L 348.115446 210.238194 
L 348.440426 209.856323 
L 348.765405 214.865771 
L 349.090385 215.270268 
L 350.065324 221.533224 
L 350.390303 222.325216 
L 350.715283 226.10052 
L 351.040262 219.829446 
L 351.365242 219.131175 
L 351.690221 212.399939 
L 352.015201 217.727862 
L 352.66516 219.710672 
L 352.990139 222.546014 
L 353.315119 219.718649 
L 353.640098 214.949037 
L 353.965078 216.83172 
L 354.290057 221.832316 
L 354.615037 222.068527 
L 355.264996 236.934832 
L 355.589975 234.922063 
L 355.914955 236.35334 
L 356.239934 239.356122 
L 356.564914 228.282761 
L 356.889894 228.601002 
L 357.539853 231.803491 
L 358.189812 219.155582 
L 358.514791 218.927648 
L 359.16475 213.807551 
L 359.48973 211.648069 
L 359.814709 216.517369 
L 360.139689 216.089019 
L 360.464668 219.375074 
L 360.789648 209.785313 
L 361.114627 215.889084 
L 361.439607 213.221 
L 361.764586 217.445269 
L 362.089566 214.040966 
L 362.414545 218.034929 
L 362.739525 214.631887 
L 363.389484 203.26515 
L 363.714464 204.666081 
L 364.039443 211.55981 
L 364.689402 196.858292 
L 365.014382 194.96235 
L 365.664341 203.08604 
L 365.98932 203.946897 
L 366.3143 206.291163 
L 366.639279 203.071555 
L 366.964259 204.421154 
L 367.289238 202.904234 
L 367.614218 212.082124 
L 367.939197 214.104805 
L 368.264177 220.63605 
L 368.589156 211.296669 
L 368.914136 217.006798 
L 369.239115 218.592994 
L 369.889075 202.415009 
L 370.214054 202.175338 
L 370.539034 203.739049 
L 370.864013 210.347485 
L 371.188993 208.768326 
L 371.513972 210.80466 
L 372.163931 207.138649 
L 372.488911 203.787373 
L 372.81389 208.851097 
L 373.13887 216.98648 
L 373.463849 216.191673 
L 373.788829 211.914301 
L 374.113808 205.656814 
L 374.438788 203.683827 
L 375.088747 196.470455 
L 375.413726 197.302115 
L 375.738706 200.495874 
L 376.063686 193.931882 
L 377.038624 183.977566 
L 377.688583 182.508262 
L 378.013563 179.28957 
L 378.338542 185.367974 
L 378.663522 186.939768 
L 379.313481 175.271436 
L 379.63846 174.489949 
L 379.96344 174.161667 
L 380.288419 177.358899 
L 380.613399 169.33449 
L 380.938378 167.021911 
L 381.263358 167.727608 
L 381.588337 162.545496 
L 381.913317 165.429954 
L 382.238296 162.971621 
L 382.563276 163.018821 
L 382.888256 166.675126 
L 383.538215 166.636281 
L 383.863194 169.335351 
L 384.188174 164.397202 
L 384.838133 149.118641 
L 385.163112 146.123056 
L 385.488092 147.760919 
L 385.813071 142.510532 
L 386.138051 144.206087 
L 386.46303 144.666159 
L 386.78801 142.948678 
L 387.112989 136.402015 
L 387.437969 126.212635 
L 387.762948 135.854063 
L 388.087928 127.011277 
L 388.412907 128.155053 
L 388.737887 133.440495 
L 389.062867 131.114822 
L 389.387846 135.22378 
L 390.037805 123.519373 
L 390.362785 122.042915 
L 390.687764 124.685318 
L 391.012744 132.105637 
L 391.337723 149.364402 
L 391.662703 149.842096 
L 391.987682 152.754432 
L 392.312662 142.434189 
L 392.637641 138.07623 
L 392.962621 137.938285 
L 393.2876 138.149249 
L 393.61258 132.484542 
L 393.937559 135.28704 
L 394.262539 140.180139 
L 394.587518 131.679712 
L 394.912498 131.108923 
L 395.237477 135.381607 
L 395.562457 132.974142 
L 395.887437 136.582264 
L 396.212416 138.929186 
L 396.537396 139.811515 
L 396.862375 138.867543 
L 397.187355 130.994889 
L 397.512334 133.922691 
L 397.837314 140.260068 
L 398.162293 133.889964 
L 398.487273 132.699242 
L 398.487273 132.699242 
" style="fill:none;stroke:#ff0000;stroke-linecap:square;stroke-width:1.5;"/>
   </g>
   <g id="line2d_13">
    <path clip-path="url(#p6645409297)" d="M 73.832727 158.580381 
L 74.157707 159.154251 
L 74.482686 158.561418 
L 74.807666 161.163372 
L 75.132645 161.335025 
L 75.457625 162.556403 
L 76.107584 170.445658 
L 76.757543 169.78475 
L 77.082523 170.505823 
L 77.732482 167.926536 
L 78.057461 175.913766 
L 78.382441 170.925993 
L 78.70742 170.92739 
L 79.0324 180.803741 
L 79.357379 181.553748 
L 79.682359 181.62082 
L 80.007338 181.22831 
L 80.332318 181.554063 
L 80.657297 180.176643 
L 80.982277 190.094946 
L 81.307256 195.62371 
L 82.282195 183.388371 
L 82.607174 185.275593 
L 82.932154 189.485328 
L 83.582113 182.350558 
L 83.907093 181.260439 
L 84.232072 180.991453 
L 84.557052 174.727021 
L 85.207011 168.911788 
L 85.53199 163.134102 
L 85.85697 162.418345 
L 86.181949 156.031938 
L 86.506929 155.275456 
L 86.831908 154.020809 
L 87.156888 147.20294 
L 87.481867 151.14142 
L 87.806847 152.043816 
L 88.131826 140.899756 
L 88.456806 146.52877 
L 88.781785 143.195165 
L 89.106765 134.501626 
L 89.431744 133.506941 
L 89.756724 135.138239 
L 90.081704 138.359049 
L 90.406683 147.894062 
L 90.731663 148.180204 
L 91.056642 153.003495 
L 91.381622 154.579924 
L 91.706601 159.512459 
L 92.031581 162.224537 
L 92.35656 160.189644 
L 92.68154 160.972016 
L 93.006519 166.43895 
L 93.656478 160.59796 
L 93.981458 164.806851 
L 94.306437 152.883044 
L 94.631417 152.832606 
L 94.956396 154.503184 
L 95.281376 158.841875 
L 95.606355 152.620615 
L 95.931335 144.127934 
L 96.256314 144.674683 
L 96.581294 141.778408 
L 96.906274 144.029391 
L 97.231253 149.739141 
L 97.556233 146.526007 
L 97.881212 147.384099 
L 98.206192 141.52241 
L 98.531171 149.183186 
L 98.856151 148.675569 
L 99.18113 142.578335 
L 99.50611 141.774413 
L 99.831089 143.926541 
L 100.156069 137.59863 
L 100.481048 139.24344 
L 100.806028 144.63899 
L 101.131007 135.443725 
L 101.455987 142.136346 
L 101.780966 144.621876 
L 102.105946 158.244349 
L 102.430925 153.79886 
L 102.755905 160.575549 
L 103.080885 146.937351 
L 103.405864 147.888032 
L 103.730844 147.834166 
L 104.055823 140.999295 
L 104.380803 142.057926 
L 104.705782 149.06065 
L 105.030762 145.945377 
L 105.355741 147.659499 
L 105.680721 147.908919 
L 106.33068 146.886174 
L 106.980639 161.684407 
L 107.305618 161.482578 
L 107.630598 164.151459 
L 107.955577 172.944699 
L 108.605536 177.350734 
L 108.930516 185.277428 
L 109.255495 188.736309 
L 109.580475 186.609203 
L 109.905455 191.031761 
L 110.230434 191.513345 
L 110.555414 194.117462 
L 110.880393 190.805187 
L 111.205373 192.116961 
L 111.855332 178.448949 
L 112.180311 181.932837 
L 112.505291 183.087638 
L 112.83027 179.667906 
L 113.15525 180.088534 
L 113.480229 178.659452 
L 113.805209 178.811381 
L 114.130188 170.37464 
L 114.780147 175.614899 
L 115.105127 169.744463 
L 115.430106 173.226533 
L 115.755086 173.494164 
L 116.080066 174.60522 
L 116.405045 178.751031 
L 116.730025 184.876289 
L 117.055004 179.641132 
L 117.379984 187.137422 
L 117.704963 198.190246 
L 118.029943 196.96729 
L 118.354922 191.838478 
L 118.679902 204.354321 
L 119.004881 201.705744 
L 119.329861 195.711186 
L 119.97982 176.5143 
L 120.629779 190.48734 
L 120.954758 186.453646 
L 121.279738 184.015571 
L 121.604717 184.744495 
L 121.929697 190.182222 
L 122.254676 179.023865 
L 122.579656 176.978628 
L 122.904636 179.277552 
L 123.229615 188.405543 
L 123.554595 187.434958 
L 123.879574 183.838917 
L 124.204554 186.080577 
L 124.529533 185.588857 
L 124.854513 194.146098 
L 125.179492 185.501877 
L 125.504472 191.322894 
L 126.154431 188.125734 
L 126.47941 183.394629 
L 127.129369 177.352643 
L 127.454349 185.63616 
L 127.779328 188.269051 
L 128.104308 187.255518 
L 128.429287 188.983577 
L 129.079247 179.838399 
L 129.404226 173.181355 
L 129.729206 176.65118 
L 130.054185 177.405677 
L 130.379165 186.597022 
L 130.704144 189.445461 
L 131.354103 185.975791 
L 132.004062 199.232955 
L 132.329042 202.817288 
L 132.654021 204.069426 
L 132.979001 210.022323 
L 133.30398 206.061704 
L 133.953939 190.217023 
L 134.278919 187.76865 
L 134.603898 190.15123 
L 134.928878 200.587419 
L 135.578837 207.090761 
L 135.903817 206.218612 
L 136.228796 201.007707 
L 136.553776 191.568837 
L 136.878755 196.518604 
L 137.528714 218.964727 
L 137.853694 214.497486 
L 138.178673 223.771612 
L 138.503653 216.239126 
L 138.828632 224.007827 
L 139.153612 226.671223 
L 139.478591 224.593224 
L 139.803571 224.533755 
L 140.12855 220.338023 
L 140.45353 223.604908 
L 140.778509 218.912514 
L 141.428468 222.188655 
L 141.753448 226.871477 
L 142.078428 224.761401 
L 142.403407 224.749329 
L 142.728387 228.065373 
L 143.053366 222.718216 
L 143.378346 210.914653 
L 143.703325 213.589156 
L 144.028305 222.816868 
L 144.353284 219.089881 
L 144.678264 211.401913 
L 145.003243 221.360157 
L 145.328223 227.683951 
L 145.653202 227.61215 
L 145.978182 233.660747 
L 146.303161 229.483611 
L 146.628141 233.070053 
L 146.95312 224.092151 
L 147.2781 225.660545 
L 147.603079 223.736312 
L 147.928059 224.32584 
L 148.578018 232.542134 
L 148.902998 239.721517 
L 149.227977 234.941159 
L 149.877936 222.667816 
L 150.202916 223.849632 
L 150.527895 219.140296 
L 150.852875 220.558472 
L 151.177854 214.066597 
L 151.502834 218.949506 
L 151.827813 216.262089 
L 152.152793 210.192634 
L 152.477772 212.324166 
L 153.127731 225.033105 
L 153.77769 216.433304 
L 154.427649 208.83552 
L 154.752629 210.747367 
L 155.077609 207.641731 
L 155.402588 206.799903 
L 155.727568 210.011141 
L 156.052547 208.744935 
L 156.377527 203.280484 
L 157.352465 218.430856 
L 157.677445 219.937391 
L 158.002424 220.526494 
L 158.327404 209.579715 
L 158.652383 216.86902 
L 158.977363 217.847876 
L 159.302342 220.91333 
L 159.627322 218.732314 
L 159.952301 225.099608 
L 160.277281 226.875008 
L 160.60226 231.88994 
L 160.92724 228.594693 
L 161.252219 221.652613 
L 161.577199 223.673638 
L 161.902179 230.028299 
L 162.227158 232.644201 
L 162.552138 231.385418 
L 162.877117 224.861058 
L 163.202097 226.620291 
L 163.852056 237.212207 
L 164.177035 234.318206 
L 164.502015 236.01948 
L 165.151974 227.109406 
L 165.476953 241.786247 
L 165.801933 243.726745 
L 166.126912 246.644176 
L 166.451892 246.076104 
L 166.776871 252.704907 
L 167.101851 251.465017 
L 167.42683 244.615139 
L 167.75181 242.713778 
L 168.07679 248.284588 
L 168.401769 249.355576 
L 168.726749 252.07407 
L 169.051728 249.93117 
L 169.376708 240.678463 
L 169.701687 236.380345 
L 170.351646 233.243125 
L 171.001605 238.345025 
L 171.326585 245.551045 
L 171.976544 237.56352 
L 172.301523 234.44783 
L 172.626503 225.051441 
L 172.951482 225.819539 
L 173.276462 229.783382 
L 173.601441 225.768847 
L 173.926421 218.425165 
L 174.2514 224.653709 
L 175.226339 213.079583 
L 175.876298 216.866935 
L 176.526257 209.853668 
L 176.851237 210.304712 
L 177.176216 208.300091 
L 177.501196 207.91121 
L 177.826175 200.771038 
L 178.476134 196.892111 
L 179.126093 201.542194 
L 179.451073 206.414896 
L 179.776052 204.350003 
L 180.426011 189.519155 
L 180.750991 187.077763 
L 181.075971 186.391239 
L 181.40095 189.251928 
L 182.050909 183.401371 
L 183.025848 174.217677 
L 183.350827 179.805084 
L 183.675807 170.141341 
L 184.000786 171.58046 
L 184.325766 162.612186 
L 184.650745 163.292703 
L 184.975725 161.749549 
L 185.300704 167.622012 
L 185.625684 169.839448 
L 185.950663 165.908363 
L 186.275643 178.396534 
L 186.600622 184.026447 
L 186.925602 181.871813 
L 187.575561 164.89758 
L 187.900541 169.874334 
L 188.875479 166.4573 
L 189.850418 146.435784 
L 190.175397 151.581877 
L 190.500377 149.472536 
L 191.150336 137.26673 
L 191.475315 137.613805 
L 191.800295 138.567856 
L 192.125274 141.638385 
L 192.450254 140.272588 
L 192.775233 146.576353 
L 193.100213 143.213639 
L 193.425192 141.507259 
L 193.750172 138.346554 
L 194.075152 134.011358 
L 194.400131 127.343465 
L 194.725111 127.612658 
L 195.05009 129.462338 
L 195.37507 121.882234 
L 195.700049 119.5128 
L 196.025029 120.96326 
L 196.350008 121.537959 
L 196.674988 119.413932 
L 196.999967 119.464015 
L 197.324947 115.034261 
L 197.649926 114.837284 
L 197.974906 114.802149 
L 198.299885 108.867375 
L 198.624865 109.025394 
L 198.949844 114.204936 
L 199.274824 111.516818 
L 199.924783 90.489522 
L 200.249762 90.066489 
L 200.574742 94.868281 
L 200.899722 105.308291 
L 201.224701 108.16518 
L 201.549681 98.563434 
L 201.87466 99.265697 
L 202.19964 101.974564 
L 202.524619 105.75692 
L 202.849599 106.061428 
L 203.174578 99.787964 
L 203.499558 99.048091 
L 203.824537 107.257193 
L 204.149517 105.64287 
L 204.474496 95.784454 
L 204.799476 95.066996 
L 205.124455 96.799373 
L 205.449435 97.665002 
L 205.774414 91.247845 
L 206.099394 94.275516 
L 206.749353 110.338304 
L 207.074333 101.312697 
L 207.399312 96.977323 
L 207.724292 107.943525 
L 208.049271 106.168951 
L 208.374251 102.307008 
L 208.69923 100.200486 
L 209.02421 94.528397 
L 209.349189 99.492614 
L 209.674169 100.526587 
L 209.999148 100.294374 
L 210.324128 99.625232 
L 210.649107 98.603611 
L 210.974087 101.018934 
L 211.299066 101.2545 
L 211.624046 102.044934 
L 211.949025 105.216208 
L 212.274005 106.329674 
L 212.598984 109.417915 
L 212.923964 99.968982 
L 213.248943 98.959558 
L 213.573923 110.176134 
L 213.898903 106.076113 
L 214.223882 98.094889 
L 214.548862 99.261843 
L 214.873841 93.827278 
L 215.198821 100.44961 
L 215.5238 104.219967 
L 215.84878 103.506538 
L 216.173759 106.260227 
L 216.498739 100.352699 
L 216.823718 96.545178 
L 217.148698 100.591645 
L 217.473677 98.435425 
L 217.798657 106.338687 
L 218.123636 109.480192 
L 218.448616 107.32207 
L 218.773595 102.701742 
L 219.098575 106.046732 
L 219.423554 103.575056 
L 219.748534 107.366039 
L 220.073514 113.414158 
L 220.398493 108.03005 
L 220.723473 109.352422 
L 221.048452 121.60461 
L 221.373432 125.795267 
L 221.698411 131.525876 
L 222.023391 130.287416 
L 222.34837 131.995834 
L 222.67335 121.046345 
L 222.998329 124.122506 
L 223.648288 138.635037 
L 224.298247 145.798661 
L 224.948206 136.774087 
L 225.273186 126.619649 
L 225.598165 127.997712 
L 225.923145 127.835298 
L 226.248124 121.556197 
L 226.573104 121.198631 
L 226.898084 126.685191 
L 227.223063 118.470608 
L 227.548043 127.139009 
L 228.198002 129.07755 
L 228.522981 133.921007 
L 228.847961 130.854723 
L 229.17294 123.65919 
L 229.49792 122.745849 
L 229.822899 125.705322 
L 230.147879 126.137384 
L 230.472858 127.011015 
L 230.797838 129.307562 
L 231.122817 130.597132 
L 231.447797 133.705579 
L 231.772776 133.923913 
L 232.097756 139.825965 
L 232.422735 140.113686 
L 233.072695 150.305117 
L 233.397674 149.251121 
L 233.722654 153.949443 
L 234.047633 156.314539 
L 234.372613 155.351941 
L 234.697592 164.280135 
L 235.022572 164.908593 
L 235.347551 174.09724 
L 235.672531 177.365962 
L 235.99751 163.714185 
L 236.647469 170.738616 
L 237.622408 155.15978 
L 237.947387 155.916823 
L 238.272367 151.023412 
L 238.597346 150.338973 
L 238.922326 147.929872 
L 239.247305 136.882885 
L 239.572285 146.733878 
L 239.897265 150.675833 
L 240.222244 165.807953 
L 240.547224 161.02739 
L 240.872203 162.940766 
L 241.197183 167.075393 
L 241.522162 165.82627 
L 241.847142 160.449612 
L 242.172121 163.082053 
L 242.497101 162.165502 
L 243.14706 172.980638 
L 243.472039 161.996521 
L 243.797019 161.342504 
L 244.121998 165.929608 
L 244.446978 161.750292 
L 244.771957 166.079936 
L 245.096937 161.182213 
L 245.746896 155.186896 
L 246.071876 160.932317 
L 246.396855 153.450006 
L 246.721835 151.62094 
L 247.046814 144.78187 
L 247.371794 142.618338 
L 247.696773 143.684421 
L 248.021753 132.568709 
L 248.346732 133.305629 
L 248.671712 139.331161 
L 248.996691 140.307631 
L 249.321671 153.272843 
L 249.97163 163.084121 
L 250.296609 161.40861 
L 250.946568 152.423374 
L 251.271548 149.457517 
L 251.596527 140.869259 
L 251.921507 135.402764 
L 252.246486 137.139525 
L 252.571466 140.143447 
L 252.896446 137.141645 
L 253.221425 139.695194 
L 253.546405 143.681899 
L 254.521343 162.891763 
L 254.846323 161.476858 
L 255.171302 158.861116 
L 255.496282 159.517709 
L 255.821261 158.661613 
L 256.7962 149.030276 
L 257.121179 161.126653 
L 257.446159 158.009213 
L 257.771138 162.809552 
L 258.096118 170.207626 
L 258.421097 169.046477 
L 258.746077 166.680816 
L 259.721016 145.334665 
L 260.045995 151.611778 
L 260.370975 146.090234 
L 260.695954 148.268573 
L 261.020934 138.677515 
L 261.345913 143.316807 
L 261.670893 139.90448 
L 261.995872 138.076678 
L 262.970811 116.693866 
L 263.29579 126.281688 
L 263.62077 127.346135 
L 263.945749 129.725172 
L 264.270729 124.962084 
L 264.595708 129.494376 
L 264.920688 130.301424 
L 265.245667 129.237791 
L 265.570647 131.118395 
L 265.895627 131.894589 
L 266.220606 138.470579 
L 266.545586 138.995722 
L 266.870565 131.171427 
L 267.195545 133.690341 
L 267.520524 138.945387 
L 267.845504 131.138417 
L 268.170483 127.727767 
L 268.820442 139.251847 
L 269.145422 140.707926 
L 269.470401 134.815479 
L 269.795381 143.628971 
L 270.12036 145.268109 
L 270.44534 139.378574 
L 270.770319 136.437069 
L 271.095299 136.770949 
L 271.420278 133.351352 
L 271.745258 140.133414 
L 272.070238 136.014137 
L 272.395217 139.017926 
L 272.720197 138.132136 
L 273.045176 139.890002 
L 273.370156 138.710071 
L 273.695135 139.111696 
L 274.345094 128.885794 
L 274.670074 129.65531 
L 274.995053 129.976571 
L 275.320033 128.517887 
L 275.645012 120.652314 
L 275.969992 119.93375 
L 276.294971 119.952246 
L 276.619951 121.07351 
L 276.94493 118.525046 
L 277.26991 119.784719 
L 277.919869 110.171693 
L 278.244848 116.256472 
L 278.569828 112.531853 
L 278.894808 114.868472 
L 279.219787 120.241756 
L 279.544767 119.36056 
L 279.869746 114.393621 
L 280.194726 113.221449 
L 280.519705 110.263483 
L 281.169664 117.877956 
L 281.819623 129.398942 
L 282.469582 135.36529 
L 282.794562 134.780682 
L 283.119541 133.089732 
L 283.444521 133.414992 
L 283.7695 125.754609 
L 284.419459 140.270711 
L 284.744439 137.215249 
L 285.069419 140.013088 
L 285.719378 146.534823 
L 286.044357 142.947406 
L 286.694316 152.041755 
L 287.019296 155.845702 
L 287.344275 148.222945 
L 287.994234 129.236588 
L 288.644193 139.145646 
L 288.969173 137.11764 
L 289.294152 141.109897 
L 289.619132 150.00254 
L 290.269091 147.527564 
L 290.59407 152.816139 
L 290.91905 151.947633 
L 291.244029 148.622179 
L 291.569009 153.035827 
L 291.893989 160.324952 
L 292.218968 150.57496 
L 292.543948 148.827431 
L 292.868927 142.309006 
L 293.193907 141.856611 
L 293.518886 141.200789 
L 293.843866 142.132034 
L 294.168845 141.137622 
L 295.143784 158.354998 
L 295.468763 157.748193 
L 295.793743 162.854596 
L 296.443702 157.52558 
L 297.093661 151.360682 
L 297.41864 154.346963 
L 297.74362 158.78151 
L 298.0686 148.896698 
L 298.393579 152.761037 
L 298.718559 145.187204 
L 299.043538 142.030178 
L 299.368518 144.231319 
L 299.693497 149.185537 
L 300.018477 148.481279 
L 300.343456 147.24059 
L 300.668436 133.825584 
L 300.993415 135.944954 
L 301.318395 125.512244 
L 301.643374 132.498901 
L 301.968354 135.228277 
L 302.293333 135.708043 
L 302.618313 133.362419 
L 302.943292 132.226394 
L 303.268272 130.515813 
L 303.918231 137.708039 
L 304.24321 138.53519 
L 304.56819 127.204814 
L 304.89317 129.620216 
L 305.218149 139.109433 
L 305.868108 146.921523 
L 306.518067 155.960572 
L 307.168026 142.646573 
L 307.493006 145.537318 
L 307.817985 153.75554 
L 308.142965 153.616206 
L 308.467944 163.4071 
L 308.792924 166.364058 
L 309.117903 175.240942 
L 309.442883 176.424765 
L 309.767862 173.044192 
L 310.092842 173.313296 
L 310.417821 167.413113 
L 310.742801 169.078847 
L 311.067781 174.194568 
L 311.39276 165.033035 
L 311.71774 163.940313 
L 312.042719 165.178482 
L 312.367699 171.348111 
L 313.017658 176.444576 
L 313.342637 172.886139 
L 313.667617 172.150289 
L 314.317576 182.412367 
L 314.967535 189.998859 
L 315.292514 185.074035 
L 315.942473 170.641929 
L 316.267453 168.443577 
L 316.592432 169.406009 
L 316.917412 163.83518 
L 317.242391 160.509862 
L 317.567371 159.580502 
L 317.892351 160.858026 
L 318.21733 160.842568 
L 318.54231 159.037807 
L 318.867289 169.126827 
L 319.842228 152.954944 
L 320.167207 151.160064 
L 320.492187 152.185023 
L 320.817166 159.311355 
L 321.142146 157.224968 
L 321.467125 159.985897 
L 322.117084 162.816636 
L 322.442064 160.721029 
L 323.092023 168.671468 
L 323.417002 169.395891 
L 323.741982 169.61526 
L 324.391941 157.967937 
L 324.716921 157.600131 
L 325.0419 157.698063 
L 325.691859 148.743169 
L 326.016839 150.674401 
L 326.341818 150.504185 
L 326.991777 146.016933 
L 327.316757 141.031352 
L 327.641736 146.570365 
L 327.966716 143.708401 
L 328.291695 148.811642 
L 328.616675 146.098329 
L 328.941654 147.777451 
L 329.266634 152.614126 
L 329.591613 145.250703 
L 329.916593 143.835406 
L 330.241572 146.678348 
L 330.566552 151.881949 
L 330.891532 144.458192 
L 331.216511 143.703759 
L 331.541491 153.209276 
L 332.19145 149.153288 
L 332.841409 154.559781 
L 333.166388 147.856305 
L 333.491368 152.270786 
L 333.816347 148.182706 
L 334.141327 166.752969 
L 334.466306 164.721883 
L 334.791286 164.429311 
L 335.116265 162.901549 
L 335.441245 169.874083 
L 336.091204 160.470739 
L 336.416183 157.468149 
L 336.741163 148.865566 
L 337.066143 154.265048 
L 337.391122 154.761531 
L 337.716102 156.252497 
L 338.041081 154.410345 
L 338.69104 166.275552 
L 339.01602 168.081049 
L 339.665979 163.20619 
L 339.990958 161.523333 
L 340.315938 162.781319 
L 340.965897 156.201666 
L 341.290876 158.480882 
L 341.615856 165.155163 
L 341.940835 159.217449 
L 342.265815 157.846171 
L 342.590794 158.858292 
L 342.915774 160.594204 
L 343.240753 157.463175 
L 343.565733 152.896281 
L 343.890713 146.685905 
L 344.215692 143.547501 
L 344.540672 142.417536 
L 344.865651 142.554171 
L 345.190631 152.420959 
L 345.51561 144.336801 
L 345.84059 142.675844 
L 346.165569 142.399229 
L 346.490549 146.059877 
L 346.815528 148.099316 
L 347.140508 145.802264 
L 347.465487 142.381833 
L 347.790467 127.087712 
L 348.115446 130.452529 
L 348.765405 131.112682 
L 349.090385 140.918583 
L 349.415364 142.306813 
L 349.740344 142.909773 
L 350.065324 142.675289 
L 350.390303 142.157665 
L 350.715283 146.721416 
L 351.040262 148.682578 
L 351.690221 135.347656 
L 352.015201 140.320399 
L 352.34018 138.474737 
L 352.66516 139.757621 
L 353.315119 130.027964 
L 353.965078 124.380792 
L 354.290057 126.776918 
L 354.615037 122.486651 
L 354.940016 130.193221 
L 355.264996 133.567516 
L 355.589975 132.673827 
L 355.914955 131.16829 
L 356.564914 138.520322 
L 356.889894 134.639606 
L 357.214873 124.58616 
L 357.539853 132.205267 
L 358.189812 122.725954 
L 358.514791 129.057409 
L 358.839771 126.218367 
L 359.16475 127.818564 
L 359.48973 128.377359 
L 359.814709 132.22344 
L 360.139689 134.206373 
L 360.464668 142.071835 
L 360.789648 142.050292 
L 361.114627 143.005403 
L 361.439607 146.084425 
L 361.764586 136.534289 
L 362.089566 137.141911 
L 362.414545 132.175073 
L 362.739525 129.925888 
L 363.064505 125.411824 
L 363.389484 130.899127 
L 364.039443 116.251849 
L 364.364423 112.696545 
L 364.689402 114.327867 
L 365.014382 125.6776 
L 365.664341 129.101593 
L 365.98932 135.445097 
L 366.639279 139.915776 
L 366.964259 139.65473 
L 367.289238 131.908285 
L 367.614218 127.202373 
L 367.939197 126.532036 
L 368.264177 126.165004 
L 368.589156 125.587613 
L 368.914136 118.679189 
L 369.239115 123.306408 
L 369.564095 130.587894 
L 369.889075 132.39586 
L 370.214054 141.105077 
L 370.539034 135.310709 
L 370.864013 136.527248 
L 371.188993 138.451438 
L 371.513972 147.182294 
L 372.163931 153.138142 
L 372.488911 152.726741 
L 372.81389 151.892917 
L 373.13887 147.386321 
L 373.463849 150.465799 
L 373.788829 146.907825 
L 374.113808 151.710648 
L 374.438788 145.213128 
L 374.763767 144.622877 
L 375.088747 145.489563 
L 375.413726 141.992355 
L 375.738706 136.291332 
L 376.063686 142.642771 
L 376.388665 144.270848 
L 376.713645 141.143636 
L 377.038624 140.331877 
L 377.363604 145.57773 
L 377.688583 146.304779 
L 378.013563 148.441656 
L 378.338542 153.043379 
L 378.663522 149.259379 
L 378.988501 157.416966 
L 379.313481 161.121321 
L 379.96344 145.271107 
L 380.613399 155.656396 
L 380.938378 163.516992 
L 381.263358 163.223539 
L 381.588337 164.338462 
L 381.913317 165.955867 
L 382.238296 161.340389 
L 382.563276 158.551896 
L 382.888256 153.943293 
L 383.213235 147.473152 
L 383.538215 155.671965 
L 383.863194 155.50822 
L 384.188174 153.792968 
L 384.513153 154.544669 
L 384.838133 150.092446 
L 385.488092 146.696978 
L 385.813071 135.411582 
L 386.138051 134.927233 
L 386.46303 136.175099 
L 387.112989 125.843541 
L 387.437969 125.363527 
L 387.762948 119.861623 
L 388.087928 117.579314 
L 388.412907 113.501023 
L 389.062867 101.24732 
L 389.387846 96.590146 
L 390.362785 78.730543 
L 390.687764 75.074408 
L 391.012744 82.927689 
L 391.337723 79.779794 
L 391.662703 87.498157 
L 391.987682 73.099053 
L 392.312662 82.266737 
L 392.637641 84.073125 
L 392.962621 96.429471 
L 393.2876 98.345602 
L 393.61258 94.919298 
L 393.937559 94.059114 
L 394.262539 98.680372 
L 394.587518 97.395995 
L 394.912498 93.681103 
L 395.237477 93.632716 
L 395.562457 85.802067 
L 395.887437 86.428864 
L 396.537396 85.600916 
L 396.862375 90.589499 
L 397.512334 69.653384 
L 398.487273 53.568 
L 398.487273 53.568 
" style="fill:none;stroke:#008000;stroke-linecap:square;stroke-width:1.5;"/>
   </g>
   <g id="patch_3">
    <path d="M 57.6 307.584 
L 57.6 41.472 
" style="fill:none;stroke:#000000;stroke-linecap:square;stroke-linejoin:miter;stroke-width:0.8;"/>
   </g>
   <g id="patch_4">
    <path d="M 414.72 307.584 
L 414.72 41.472 
" style="fill:none;stroke:#000000;stroke-linecap:square;stroke-linejoin:miter;stroke-width:0.8;"/>
   </g>
   <g id="patch_5">
    <path d="M 57.6 307.584 
L 414.72 307.584 
" style="fill:none;stroke:#000000;stroke-linecap:square;stroke-linejoin:miter;stroke-width:0.8;"/>
   </g>
   <g id="patch_6">
    <path d="M 57.6 41.472 
L 414.72 41.472 
" style="fill:none;stroke:#000000;stroke-linecap:square;stroke-linejoin:miter;stroke-width:0.8;"/>
   </g>
   <g id="text_13">
    <!-- ORCL Stock price changes last week -->
    <g transform="translate(127.167187 35.472)scale(0.12 -0.12)">
     <defs>
      <path d="M 39.40625 66.21875 
Q 28.65625 66.21875 22.328125 58.203125 
Q 16.015625 50.203125 16.015625 36.375 
Q 16.015625 22.609375 22.328125 14.59375 
Q 28.65625 6.59375 39.40625 6.59375 
Q 50.140625 6.59375 56.421875 14.59375 
Q 62.703125 22.609375 62.703125 36.375 
Q 62.703125 50.203125 56.421875 58.203125 
Q 50.140625 66.21875 39.40625 66.21875 
z
M 39.40625 74.21875 
Q 54.734375 74.21875 63.90625 63.9375 
Q 73.09375 53.65625 73.09375 36.375 
Q 73.09375 19.140625 63.90625 8.859375 
Q 54.734375 -1.421875 39.40625 -1.421875 
Q 24.03125 -1.421875 14.8125 8.828125 
Q 5.609375 19.09375 5.609375 36.375 
Q 5.609375 53.65625 14.8125 63.9375 
Q 24.03125 74.21875 39.40625 74.21875 
z
" id="DejaVuSans-79"/>
      <path d="M 44.390625 34.1875 
Q 47.5625 33.109375 50.5625 29.59375 
Q 53.5625 26.078125 56.59375 19.921875 
L 66.609375 0 
L 56 0 
L 46.6875 18.703125 
Q 43.0625 26.03125 39.671875 28.421875 
Q 36.28125 30.8125 30.421875 30.8125 
L 19.671875 30.8125 
L 19.671875 0 
L 9.8125 0 
L 9.8125 72.90625 
L 32.078125 72.90625 
Q 44.578125 72.90625 50.734375 67.671875 
Q 56.890625 62.453125 56.890625 51.90625 
Q 56.890625 45.015625 53.6875 40.46875 
Q 50.484375 35.9375 44.390625 34.1875 
z
M 19.671875 64.796875 
L 19.671875 38.921875 
L 32.078125 38.921875 
Q 39.203125 38.921875 42.84375 42.21875 
Q 46.484375 45.515625 46.484375 51.90625 
Q 46.484375 58.296875 42.84375 61.546875 
Q 39.203125 64.796875 32.078125 64.796875 
z
" id="DejaVuSans-82"/>
      <path d="M 64.40625 67.28125 
L 64.40625 56.890625 
Q 59.421875 61.53125 53.78125 63.8125 
Q 48.140625 66.109375 41.796875 66.109375 
Q 29.296875 66.109375 22.65625 58.46875 
Q 16.015625 50.828125 16.015625 36.375 
Q 16.015625 21.96875 22.65625 14.328125 
Q 29.296875 6.6875 41.796875 6.6875 
Q 48.140625 6.6875 53.78125 8.984375 
Q 59.421875 11.28125 64.40625 15.921875 
L 64.40625 5.609375 
Q 59.234375 2.09375 53.4375 0.328125 
Q 47.65625 -1.421875 41.21875 -1.421875 
Q 24.65625 -1.421875 15.125 8.703125 
Q 5.609375 18.84375 5.609375 36.375 
Q 5.609375 53.953125 15.125 64.078125 
Q 24.65625 74.21875 41.21875 74.21875 
Q 47.75 74.21875 53.53125 72.484375 
Q 59.328125 70.75 64.40625 67.28125 
z
" id="DejaVuSans-67"/>
      <path id="DejaVuSans-32"/>
      <path d="M 53.515625 70.515625 
L 53.515625 60.890625 
Q 47.90625 63.578125 42.921875 64.890625 
Q 37.9375 66.21875 33.296875 66.21875 
Q 25.25 66.21875 20.875 63.09375 
Q 16.5 59.96875 16.5 54.203125 
Q 16.5 49.359375 19.40625 46.890625 
Q 22.3125 44.4375 30.421875 42.921875 
L 36.375 41.703125 
Q 47.40625 39.59375 52.65625 34.296875 
Q 57.90625 29 57.90625 20.125 
Q 57.90625 9.515625 50.796875 4.046875 
Q 43.703125 -1.421875 29.984375 -1.421875 
Q 24.8125 -1.421875 18.96875 -0.25 
Q 13.140625 0.921875 6.890625 3.21875 
L 6.890625 13.375 
Q 12.890625 10.015625 18.65625 8.296875 
Q 24.421875 6.59375 29.984375 6.59375 
Q 38.421875 6.59375 43.015625 9.90625 
Q 47.609375 13.234375 47.609375 19.390625 
Q 47.609375 24.75 44.3125 27.78125 
Q 41.015625 30.8125 33.5 32.328125 
L 27.484375 33.5 
Q 16.453125 35.6875 11.515625 40.375 
Q 6.59375 45.0625 6.59375 53.421875 
Q 6.59375 63.09375 13.40625 68.65625 
Q 20.21875 74.21875 32.171875 74.21875 
Q 37.3125 74.21875 42.625 73.28125 
Q 47.953125 72.359375 53.515625 70.515625 
z
" id="DejaVuSans-83"/>
      <path d="M 48.78125 52.59375 
L 48.78125 44.1875 
Q 44.96875 46.296875 41.140625 47.34375 
Q 37.3125 48.390625 33.40625 48.390625 
Q 24.65625 48.390625 19.8125 42.84375 
Q 14.984375 37.3125 14.984375 27.296875 
Q 14.984375 17.28125 19.8125 11.734375 
Q 24.65625 6.203125 33.40625 6.203125 
Q 37.3125 6.203125 41.140625 7.25 
Q 44.96875 8.296875 48.78125 10.40625 
L 48.78125 2.09375 
Q 45.015625 0.34375 40.984375 -0.53125 
Q 36.96875 -1.421875 32.421875 -1.421875 
Q 20.0625 -1.421875 12.78125 6.34375 
Q 5.515625 14.109375 5.515625 27.296875 
Q 5.515625 40.671875 12.859375 48.328125 
Q 20.21875 56 33.015625 56 
Q 37.15625 56 41.109375 55.140625 
Q 45.0625 54.296875 48.78125 52.59375 
z
" id="DejaVuSans-99"/>
      <path d="M 9.078125 75.984375 
L 18.109375 75.984375 
L 18.109375 31.109375 
L 44.921875 54.6875 
L 56.390625 54.6875 
L 27.390625 29.109375 
L 57.625 0 
L 45.90625 0 
L 18.109375 26.703125 
L 18.109375 0 
L 9.078125 0 
z
" id="DejaVuSans-107"/>
      <path d="M 18.109375 8.203125 
L 18.109375 -20.796875 
L 9.078125 -20.796875 
L 9.078125 54.6875 
L 18.109375 54.6875 
L 18.109375 46.390625 
Q 20.953125 51.265625 25.265625 53.625 
Q 29.59375 56 35.59375 56 
Q 45.5625 56 51.78125 48.09375 
Q 58.015625 40.1875 58.015625 27.296875 
Q 58.015625 14.40625 51.78125 6.484375 
Q 45.5625 -1.421875 35.59375 -1.421875 
Q 29.59375 -1.421875 25.265625 0.953125 
Q 20.953125 3.328125 18.109375 8.203125 
z
M 48.6875 27.296875 
Q 48.6875 37.203125 44.609375 42.84375 
Q 40.53125 48.484375 33.40625 48.484375 
Q 26.265625 48.484375 22.1875 42.84375 
Q 18.109375 37.203125 18.109375 27.296875 
Q 18.109375 17.390625 22.1875 11.75 
Q 26.265625 6.109375 33.40625 6.109375 
Q 40.53125 6.109375 44.609375 11.75 
Q 48.6875 17.390625 48.6875 27.296875 
z
" id="DejaVuSans-112"/>
      <path d="M 34.28125 27.484375 
Q 23.390625 27.484375 19.1875 25 
Q 14.984375 22.515625 14.984375 16.5 
Q 14.984375 11.71875 18.140625 8.90625 
Q 21.296875 6.109375 26.703125 6.109375 
Q 34.1875 6.109375 38.703125 11.40625 
Q 43.21875 16.703125 43.21875 25.484375 
L 43.21875 27.484375 
z
M 52.203125 31.203125 
L 52.203125 0 
L 43.21875 0 
L 43.21875 8.296875 
Q 40.140625 3.328125 35.546875 0.953125 
Q 30.953125 -1.421875 24.3125 -1.421875 
Q 15.921875 -1.421875 10.953125 3.296875 
Q 6 8.015625 6 15.921875 
Q 6 25.140625 12.171875 29.828125 
Q 18.359375 34.515625 30.609375 34.515625 
L 43.21875 34.515625 
L 43.21875 35.40625 
Q 43.21875 41.609375 39.140625 45 
Q 35.0625 48.390625 27.6875 48.390625 
Q 23 48.390625 18.546875 47.265625 
Q 14.109375 46.140625 10.015625 43.890625 
L 10.015625 52.203125 
Q 14.9375 54.109375 19.578125 55.046875 
Q 24.21875 56 28.609375 56 
Q 40.484375 56 46.34375 49.84375 
Q 52.203125 43.703125 52.203125 31.203125 
z
" id="DejaVuSans-97"/>
      <path d="M 45.40625 27.984375 
Q 45.40625 37.75 41.375 43.109375 
Q 37.359375 48.484375 30.078125 48.484375 
Q 22.859375 48.484375 18.828125 43.109375 
Q 14.796875 37.75 14.796875 27.984375 
Q 14.796875 18.265625 18.828125 12.890625 
Q 22.859375 7.515625 30.078125 7.515625 
Q 37.359375 7.515625 41.375 12.890625 
Q 45.40625 18.265625 45.40625 27.984375 
z
M 54.390625 6.78125 
Q 54.390625 -7.171875 48.1875 -13.984375 
Q 42 -20.796875 29.203125 -20.796875 
Q 24.46875 -20.796875 20.265625 -20.09375 
Q 16.0625 -19.390625 12.109375 -17.921875 
L 12.109375 -9.1875 
Q 16.0625 -11.328125 19.921875 -12.34375 
Q 23.78125 -13.375 27.78125 -13.375 
Q 36.625 -13.375 41.015625 -8.765625 
Q 45.40625 -4.15625 45.40625 5.171875 
L 45.40625 9.625 
Q 42.625 4.78125 38.28125 2.390625 
Q 33.9375 0 27.875 0 
Q 17.828125 0 11.671875 7.65625 
Q 5.515625 15.328125 5.515625 27.984375 
Q 5.515625 40.671875 11.671875 48.328125 
Q 17.828125 56 27.875 56 
Q 33.9375 56 38.28125 53.609375 
Q 42.625 51.21875 45.40625 46.390625 
L 45.40625 54.6875 
L 54.390625 54.6875 
z
" id="DejaVuSans-103"/>
     </defs>
     <use xlink:href="#DejaVuSans-79"/>
     <use x="78.710938" xlink:href="#DejaVuSans-82"/>
     <use x="143.193359" xlink:href="#DejaVuSans-67"/>
     <use x="213.017578" xlink:href="#DejaVuSans-76"/>
     <use x="268.730469" xlink:href="#DejaVuSans-32"/>
     <use x="300.517578" xlink:href="#DejaVuSans-83"/>
     <use x="363.994141" xlink:href="#DejaVuSans-116"/>
     <use x="403.203125" xlink:href="#DejaVuSans-111"/>
     <use x="464.384766" xlink:href="#DejaVuSans-99"/>
     <use x="519.365234" xlink:href="#DejaVuSans-107"/>
     <use x="577.275391" xlink:href="#DejaVuSans-32"/>
     <use x="609.0625" xlink:href="#DejaVuSans-112"/>
     <use x="672.539062" xlink:href="#DejaVuSans-114"/>
     <use x="713.652344" xlink:href="#DejaVuSans-105"/>
     <use x="741.435547" xlink:href="#DejaVuSans-99"/>
     <use x="796.416016" xlink:href="#DejaVuSans-101"/>
     <use x="857.939453" xlink:href="#DejaVuSans-32"/>
     <use x="889.726562" xlink:href="#DejaVuSans-99"/>
     <use x="944.707031" xlink:href="#DejaVuSans-104"/>
     <use x="1008.085938" xlink:href="#DejaVuSans-97"/>
     <use x="1069.365234" xlink:href="#DejaVuSans-110"/>
     <use x="1132.744141" xlink:href="#DejaVuSans-103"/>
     <use x="1196.220703" xlink:href="#DejaVuSans-101"/>
     <use x="1257.744141" xlink:href="#DejaVuSans-115"/>
     <use x="1309.84375" xlink:href="#DejaVuSans-32"/>
     <use x="1341.630859" xlink:href="#DejaVuSans-108"/>
     <use x="1369.414062" xlink:href="#DejaVuSans-97"/>
     <use x="1430.693359" xlink:href="#DejaVuSans-115"/>
     <use x="1482.792969" xlink:href="#DejaVuSans-116"/>
     <use x="1522.001953" xlink:href="#DejaVuSans-32"/>
     <use x="1553.789062" xlink:href="#DejaVuSans-119"/>
     <use x="1635.576172" xlink:href="#DejaVuSans-101"/>
     <use x="1697.099609" xlink:href="#DejaVuSans-101"/>
     <use x="1758.623047" xlink:href="#DejaVuSans-107"/>
    </g>
   </g>
   <g id="legend_1">
    <g id="patch_7">
     <path d="M 64.6 78.82825 
L 123.475 78.82825 
Q 125.475 78.82825 125.475 76.82825 
L 125.475 48.472 
Q 125.475 46.472 123.475 46.472 
L 64.6 46.472 
Q 62.6 46.472 62.6 48.472 
L 62.6 76.82825 
Q 62.6 78.82825 64.6 78.82825 
z
" style="fill:#ffffff;opacity:0.8;stroke:#cccccc;stroke-linejoin:miter;"/>
    </g>
    <g id="line2d_14">
     <path d="M 66.6 54.570437 
L 86.6 54.570437 
" style="fill:none;stroke:#ff0000;stroke-linecap:square;stroke-width:1.5;"/>
    </g>
    <g id="line2d_15"/>
    <g id="text_14">
     <!-- ORCL -->
     <g transform="translate(94.6 58.070437)scale(0.1 -0.1)">
      <use xlink:href="#DejaVuSans-79"/>
      <use x="78.710938" xlink:href="#DejaVuSans-82"/>
      <use x="143.193359" xlink:href="#DejaVuSans-67"/>
      <use x="213.017578" xlink:href="#DejaVuSans-76"/>
     </g>
    </g>
    <g id="line2d_16">
     <path d="M 66.6 69.248562 
L 86.6 69.248562 
" style="fill:none;stroke:#008000;stroke-linecap:square;stroke-width:1.5;"/>
    </g>
    <g id="line2d_17"/>
    <g id="text_15">
     <!-- MSFT -->
     <g transform="translate(94.6 72.748562)scale(0.1 -0.1)">
      <defs>
       <path d="M 9.8125 72.90625 
L 24.515625 72.90625 
L 43.109375 23.296875 
L 61.8125 72.90625 
L 76.515625 72.90625 
L 76.515625 0 
L 66.890625 0 
L 66.890625 64.015625 
L 48.09375 14.015625 
L 38.1875 14.015625 
L 19.390625 64.015625 
L 19.390625 0 
L 9.8125 0 
z
" id="DejaVuSans-77"/>
       <path d="M 9.8125 72.90625 
L 51.703125 72.90625 
L 51.703125 64.59375 
L 19.671875 64.59375 
L 19.671875 43.109375 
L 48.578125 43.109375 
L 48.578125 34.8125 
L 19.671875 34.8125 
L 19.671875 0 
L 9.8125 0 
z
" id="DejaVuSans-70"/>
       <path d="M -0.296875 72.90625 
L 61.375 72.90625 
L 61.375 64.59375 
L 35.5 64.59375 
L 35.5 0 
L 25.59375 0 
L 25.59375 64.59375 
L -0.296875 64.59375 
z
" id="DejaVuSans-84"/>
      </defs>
      <use xlink:href="#DejaVuSans-77"/>
      <use x="86.279297" xlink:href="#DejaVuSans-83"/>
      <use x="149.755859" xlink:href="#DejaVuSans-70"/>
      <use x="205.525391" xlink:href="#DejaVuSans-84"/>
     </g>
    </g>
   </g>
  </g>
 </g>
 <defs>
  <clipPath id="p6645409297">
   <rect height="266.112" width="357.12" x="57.6" y="41.472"/>
  </clipPath>
 </defs>
</svg>
